<mxfile host="app.diagrams.net" modified="2023-03-01T13:02:02.046Z" agent="5.0 (Windows NT 10.0; Win64; x64) AppleWebKit/537.36 (KHTML, like Gecko) Chrome/96.0.4664.45 Safari/537.36" etag="l-gK4BKD-tVmtNJUYqeJ" version="20.8.20" type="github">
  <diagram name="Page-1" id="55a83fd1-7818-8e21-69c5-c3457e3827bb">
    <mxGraphModel dx="859" dy="452" grid="1" gridSize="10" guides="1" tooltips="1" connect="1" arrows="1" fold="1" page="1" pageScale="1" pageWidth="1100" pageHeight="850" background="none" math="0" shadow="0">
      <root>
        <mxCell id="0" />
        <mxCell id="1" parent="0" />
        <mxCell id="9olpXJAxPilYs5qB9dIM-32" value="" style="rounded=1;whiteSpace=wrap;html=1;fontSize=11;glass=0;shadow=1;fillColor=#fad9d5;strokeColor=#ae4132;labelBackgroundColor=#fad9d5;" vertex="1" parent="1">
          <mxGeometry x="20" y="356.5" width="480" height="250" as="geometry" />
        </mxCell>
        <mxCell id="h7C7_MWoEDFQVUB63Uze-1" value="数采设备" style="shape=image;verticalLabelPosition=bottom;labelBackgroundColor=#fad9d5;verticalAlign=top;aspect=fixed;imageAspect=0;image=https://o.remove.bg/downloads/db545dfa-2f7c-4ccc-bd45-f7ecea8115f0/bd1e3572b59b8c41902bca50e69b6ed-removebg-preview.png;" parent="1" vertex="1">
          <mxGeometry x="210" y="450" width="140" height="60" as="geometry" />
        </mxCell>
        <mxCell id="h7C7_MWoEDFQVUB63Uze-3" value="传感器" style="shape=image;verticalLabelPosition=bottom;labelBackgroundColor=#fad9d5;verticalAlign=top;aspect=fixed;imageAspect=0;image=https://o.remove.bg/downloads/4f0bd250-975d-451d-9e87-8efdd13bd213/image-removebg-preview.png;" parent="1" vertex="1">
          <mxGeometry x="30" y="455" width="75" height="50" as="geometry" />
        </mxCell>
        <mxCell id="9olpXJAxPilYs5qB9dIM-1" value="" style="group" vertex="1" connectable="0" parent="1">
          <mxGeometry x="560" y="250" width="120" height="80" as="geometry" />
        </mxCell>
        <mxCell id="h7C7_MWoEDFQVUB63Uze-9" value="" style="ellipse;shape=cloud;whiteSpace=wrap;html=1;verticalAlign=top;labelBackgroundColor=default;fillColor=#60a917;fontColor=#ffffff;strokeColor=#2D7600;" parent="9olpXJAxPilYs5qB9dIM-1" vertex="1">
          <mxGeometry width="120" height="80" as="geometry" />
        </mxCell>
        <mxCell id="h7C7_MWoEDFQVUB63Uze-10" value="&lt;font style=&quot;font-size: 16px;&quot;&gt;MQTT&lt;/font&gt;" style="text;strokeColor=none;fillColor=none;html=1;align=center;verticalAlign=middle;whiteSpace=wrap;rounded=0;" parent="9olpXJAxPilYs5qB9dIM-1" vertex="1">
          <mxGeometry x="30" y="25" width="60" height="30" as="geometry" />
        </mxCell>
        <mxCell id="9olpXJAxPilYs5qB9dIM-4" value="" style="shape=image;verticalLabelPosition=bottom;labelBackgroundColor=default;verticalAlign=top;aspect=fixed;imageAspect=0;image=https://o.remove.bg/downloads/5de61391-5c4b-4149-a5a0-1e8953f048dc/image-removebg-preview.png;" vertex="1" parent="1">
          <mxGeometry x="730" y="421.5" width="120" height="120" as="geometry" />
        </mxCell>
        <mxCell id="9olpXJAxPilYs5qB9dIM-10" value="" style="group;rounded=1;shadow=1;fillColor=#dae8fc;strokeColor=#6c8ebf;glass=0;" vertex="1" connectable="0" parent="1">
          <mxGeometry x="393" y="460" width="80" height="40" as="geometry" />
        </mxCell>
        <mxCell id="9olpXJAxPilYs5qB9dIM-7" value="" style="whiteSpace=wrap;html=1;verticalAlign=top;labelBackgroundColor=default;fontSize=11;fillColor=#dae8fc;strokeColor=#6c8ebf;rounded=0;shadow=0;" vertex="1" parent="9olpXJAxPilYs5qB9dIM-10">
          <mxGeometry width="80" height="40" as="geometry" />
        </mxCell>
        <mxCell id="9olpXJAxPilYs5qB9dIM-8" value="HTTP&lt;br&gt;Server" style="text;strokeColor=none;fillColor=none;html=1;align=center;verticalAlign=middle;whiteSpace=wrap;rounded=0;fontSize=11;" vertex="1" parent="9olpXJAxPilYs5qB9dIM-10">
          <mxGeometry x="25" y="15" width="30" height="10" as="geometry" />
        </mxCell>
        <mxCell id="9olpXJAxPilYs5qB9dIM-15" value="" style="group;sketch=1;curveFitting=1;jiggle=2;shadow=1;rounded=1;glass=0;" vertex="1" connectable="0" parent="1">
          <mxGeometry x="393" y="390" width="80" height="40" as="geometry" />
        </mxCell>
        <mxCell id="9olpXJAxPilYs5qB9dIM-16" value="" style="whiteSpace=wrap;html=1;verticalAlign=top;labelBackgroundColor=default;fontSize=11;fillColor=#dae8fc;strokeColor=#6c8ebf;rounded=1;shadow=1;" vertex="1" parent="9olpXJAxPilYs5qB9dIM-15">
          <mxGeometry width="80" height="40" as="geometry" />
        </mxCell>
        <mxCell id="9olpXJAxPilYs5qB9dIM-17" value="WebSocket&lt;br&gt;Server" style="text;strokeColor=none;fillColor=none;html=1;align=center;verticalAlign=middle;whiteSpace=wrap;rounded=0;fontSize=11;" vertex="1" parent="9olpXJAxPilYs5qB9dIM-15">
          <mxGeometry x="25" y="20" width="30" as="geometry" />
        </mxCell>
        <mxCell id="9olpXJAxPilYs5qB9dIM-18" value="" style="group;sketch=1;curveFitting=1;jiggle=2;shadow=1;rounded=1;glass=0;" vertex="1" connectable="0" parent="1">
          <mxGeometry x="393" y="540" width="80" height="40" as="geometry" />
        </mxCell>
        <mxCell id="9olpXJAxPilYs5qB9dIM-19" value="" style="whiteSpace=wrap;html=1;verticalAlign=top;labelBackgroundColor=default;fontSize=12;fillColor=#dae8fc;strokeColor=#6c8ebf;rounded=1;shadow=1;glass=0;" vertex="1" parent="9olpXJAxPilYs5qB9dIM-18">
          <mxGeometry width="80" height="40" as="geometry" />
        </mxCell>
        <mxCell id="9olpXJAxPilYs5qB9dIM-20" value="MQTT&amp;nbsp;&lt;br&gt;Producer" style="text;strokeColor=none;fillColor=none;html=1;align=center;verticalAlign=middle;whiteSpace=wrap;rounded=0;fontSize=11;" vertex="1" parent="9olpXJAxPilYs5qB9dIM-18">
          <mxGeometry x="25" y="20" width="30" as="geometry" />
        </mxCell>
        <mxCell id="9olpXJAxPilYs5qB9dIM-28" style="edgeStyle=orthogonalEdgeStyle;rounded=0;sketch=1;orthogonalLoop=1;jettySize=auto;html=1;exitX=0.5;exitY=0;exitDx=0;exitDy=0;entryX=0.96;entryY=0.7;entryDx=0;entryDy=0;entryPerimeter=0;curved=1;" edge="1" parent="1">
          <mxGeometry relative="1" as="geometry">
            <Array as="points">
              <mxPoint x="165" y="264" />
              <mxPoint x="165" y="190" />
            </Array>
            <mxPoint x="160" y="264" as="sourcePoint" />
            <mxPoint x="130" y="190" as="targetPoint" />
          </mxGeometry>
        </mxCell>
        <mxCell id="9olpXJAxPilYs5qB9dIM-29" style="edgeStyle=orthogonalEdgeStyle;rounded=0;sketch=1;orthogonalLoop=1;jettySize=auto;html=1;exitX=0.5;exitY=0;exitDx=0;exitDy=0;entryX=0;entryY=0.5;entryDx=0;entryDy=0;curved=1;" edge="1" parent="1" target="h7C7_MWoEDFQVUB63Uze-1">
          <mxGeometry relative="1" as="geometry">
            <Array as="points">
              <mxPoint x="160" y="480" />
              <mxPoint x="160" y="480" />
            </Array>
            <mxPoint x="120" y="480" as="sourcePoint" />
            <mxPoint x="90" y="406" as="targetPoint" />
          </mxGeometry>
        </mxCell>
        <mxCell id="9olpXJAxPilYs5qB9dIM-30" value="数据采集存储到数采" style="text;strokeColor=none;fillColor=none;html=1;align=center;verticalAlign=middle;whiteSpace=wrap;rounded=0;fontSize=11;" vertex="1" parent="1">
          <mxGeometry x="130" y="450" width="70" height="30" as="geometry" />
        </mxCell>
      </root>
    </mxGraphModel>
  </diagram>
</mxfile>
